<svg width="24" height="24" viewBox="0 0 24 24" fill="none" xmlns="http://www.w3.org/2000/svg">
<g id="Frame">
<g id="Group">
<path id="Vector" fill-rule="evenodd" clip-rule="evenodd" d="M2.94582 4.61067L9.42957 11.0972C10.8437 12.5086 13.1553 12.5099 14.5706 11.0972L21.0543 4.61067C21.0697 4.59543 21.0815 4.577 21.0889 4.5567C21.0963 4.53639 21.0991 4.5147 21.0972 4.49316C21.0953 4.47163 21.0887 4.45078 21.0779 4.43209C21.067 4.4134 21.0521 4.39733 21.0344 4.38502C20.3731 3.92381 19.5684 3.65039 18.7017 3.65039H5.29848C4.43171 3.65039 3.6271 3.92386 2.96579 4.38502C2.94802 4.39733 2.93318 4.4134 2.92231 4.43209C2.91145 4.45078 2.90483 4.47163 2.90292 4.49316C2.90102 4.5147 2.90387 4.53639 2.91129 4.5567C2.9187 4.577 2.93049 4.59543 2.94582 4.61067ZM1.21314 7.73569C1.21261 7.07661 1.37278 6.42735 1.67978 5.84414C1.69049 5.82358 1.70591 5.80584 1.72478 5.79236C1.74364 5.77888 1.76542 5.77004 1.78834 5.76656C1.81127 5.76308 1.83469 5.76505 1.8567 5.77233C1.87872 5.7796 1.89871 5.79197 1.91504 5.80842L8.31671 12.2101C10.3439 14.2402 13.6551 14.2414 15.6835 12.2101L22.0852 5.80842C22.1015 5.79197 22.1215 5.7796 22.1435 5.77233C22.1655 5.76505 22.1889 5.76308 22.2119 5.76656C22.2348 5.77004 22.2566 5.77888 22.2754 5.79236C22.2943 5.80584 22.3097 5.82358 22.3204 5.84414C22.6274 6.42736 22.7876 7.07662 22.7871 7.73569V16.264C22.7871 18.5183 20.9533 20.3493 18.7017 20.3493H5.29848C3.04698 20.3493 1.21314 18.5183 1.21314 16.264V7.73569Z" fill="#18191B"/>
</g>
</g>
</svg>
